<svg width="166" height="43" viewBox="0 0 166 43" fill="none" xmlns="http://www.w3.org/2000/svg">
<path d="M0 12.8064L5.07298 15.691V21.6593L0 18.7746V12.8064Z" fill="#1E4CA1"/>
<path d="M0.597168 11.8159L5.64618 8.88953L10.8002 11.8989L5.57936 14.7249L0.597168 11.8159Z" fill="#CF093C"/>
<path d="M6.66455 8.31787L11.813 5.30854L16.967 8.31786L11.638 11.2148L6.66455 8.31787Z" fill="#CF093C"/>
<path d="M12.8158 4.70156L18.1791 1.52882L23.1342 4.53814L17.8888 7.68567L12.8158 4.70156Z" fill="#CF093C"/>
<path d="M0 19.9683L5.07298 22.8529V28.8211L0 25.7375V19.9683Z" fill="#1E4CA1"/>
<path d="M0 26.9314L5.07298 29.816V35.7843L0 32.7007V26.9314Z" fill="#1E4CA1"/>
<path fill-rule="evenodd" clip-rule="evenodd" d="M6.71671 30.7682L5.96777 30.313V36.2812L11.0408 39.3648V34.4868L6.18752 31.6848L6.71671 30.7682Z" fill="#1E4CA1"/>
<path fill-rule="evenodd" clip-rule="evenodd" d="M9.75594 25.5044L5.96777 23.3503V29.3186L7.14181 30.0322L9.75594 25.5044Z" fill="#1E4CA1"/>
<path fill-rule="evenodd" clip-rule="evenodd" d="M11.0415 23.279V19.0731L6.16748 16.3875V22.3557L10.1976 24.7408L11.0415 23.279Z" fill="#1E4CA1"/>
<path fill-rule="evenodd" clip-rule="evenodd" d="M15.8452 14.9577L11.5382 12.4087L6.36572 15.397L11.4147 18.178L15.2712 15.952L15.8452 14.9577Z" fill="#CF093C"/>
<path fill-rule="evenodd" clip-rule="evenodd" d="M18.9963 9.50006L17.789 8.77979L12.4336 11.8159L16.3358 14.1081L18.9963 9.50006Z" fill="#CF093C"/>
<path fill-rule="evenodd" clip-rule="evenodd" d="M24.1474 5.10986L18.8994 8.23519L19.5166 8.59943L20.1523 7.49827L25.2681 10.4519L29.3014 8.11918L24.1474 5.10986Z" fill="#CF093C"/>
<path d="M21.2869 9.62305L26.4594 12.8061L22.58 19.5701L17.3081 16.4865L21.2869 9.62305Z" fill="#1E4CA1"/>
<path d="M16.9103 17.1829L22.2817 20.3659L18.2034 27.3288L12.9155 24.098L16.9103 17.1829Z" fill="#1E4CA1"/>
<path d="M12.534 24.7427L17.9054 27.9257L13.8112 34.7413L8.55518 31.6061L12.534 24.7427Z" fill="#1E4CA1"/>
<path d="M27.1561 13.2041L30.9359 15.3924L26.9571 22.2559L23.1772 20.0676L27.1561 13.2041Z" fill="#81AD00"/>
<path d="M22.8787 20.7637L26.6586 22.952L22.6798 29.8155L18.8999 27.6271L22.8787 20.7637Z" fill="#81AD00"/>
<path d="M18.5018 28.3235L22.2816 30.5118L18.3028 37.3753L14.5229 35.1869L18.5018 28.3235Z" fill="#81AD00"/>
<path d="M31.6326 15.7903L35.4125 17.9786L31.4337 24.8421L27.6538 22.6537L31.6326 15.7903Z" fill="#81AD00"/>
<path d="M27.3553 23.3499L31.1351 25.5382L27.1563 32.4016L23.3765 30.2133L27.3553 23.3499Z" fill="#81AD00"/>
<path d="M22.9788 30.9097L26.7587 33.098L22.7639 40.0131L19 37.7731L22.9788 30.9097Z" fill="#81AD00"/>
<path d="M35.9932 18.3286L39.789 20.5648L35.8101 27.4282L32.0303 25.2399L35.9932 18.3286Z" fill="#81AD00"/>
<path d="M31.7158 25.8884L35.3962 28.0768L31.6163 34.8408L27.7529 32.6524L31.7158 25.8884Z" fill="#81AD00"/>
<path d="M27.3553 33.4961L31.1351 35.6844L27.1563 42.5479L23.3765 40.3595L27.3553 33.4961Z" fill="#81AD00"/>
<path d="M63.733 25.8368L62.4834 21.7409H56.1998L54.9502 25.8368H51.0127L57.0958 8.55839H61.5638L67.6705 25.8368H63.733ZM61.611 18.6806C60.4557 14.9691 59.8033 12.8702 59.654 12.3837C59.5125 11.8972 59.4104 11.5127 59.3475 11.2302C59.0881 12.2346 58.3454 14.7181 57.1194 18.6806H61.611Z" fill="black"/>
<path d="M77.1724 11.4185C75.797 11.4185 74.7321 11.9364 73.9776 12.9722C73.2231 14.0001 72.8458 15.436 72.8458 17.28C72.8458 21.117 74.288 23.0356 77.1724 23.0356C78.3827 23.0356 79.8485 22.7335 81.5697 22.1293V25.1895C80.155 25.778 78.5753 26.0722 76.8305 26.0722C74.3234 26.0722 72.4057 25.315 71.0775 23.8006C69.7493 22.2784 69.0852 20.097 69.0852 17.2565C69.0852 15.4674 69.4113 13.902 70.0637 12.5602C70.716 11.2106 71.6512 10.1787 72.8694 9.46468C74.0955 8.74278 75.5298 8.38184 77.1724 8.38184C78.8464 8.38184 80.5283 8.78594 82.2181 9.59415L81.0392 12.5602C80.3947 12.2542 79.7463 11.9874 79.094 11.7598C78.4417 11.5323 77.8011 11.4185 77.1724 11.4185Z" fill="black"/>
<path d="M95.799 25.8368L94.5493 21.7409H88.2658L87.0162 25.8368H83.0787L89.1618 8.55839H93.6298L99.7365 25.8368H95.799ZM93.6769 18.6806C92.5216 14.9691 91.8693 12.8702 91.72 12.3837C91.5785 11.8972 91.4763 11.5127 91.4135 11.2302C91.1541 12.2346 90.4114 14.7181 89.1853 18.6806H93.6769Z" fill="black"/>
<path d="M101.917 25.8368V8.62901H105.572V22.8237H112.563V25.8368H101.917Z" fill="black"/>
<path d="M115.569 25.8368V8.62901H119.224V25.8368H115.569Z" fill="black"/>
<path d="M133.736 21.0582C133.736 22.6118 133.174 23.8359 132.05 24.7305C130.934 25.625 129.378 26.0722 127.382 26.0722C125.542 26.0722 123.916 25.727 122.501 25.0365V21.6467C123.664 22.1646 124.647 22.5295 125.448 22.7413C126.258 22.9532 126.996 23.0591 127.665 23.0591C128.466 23.0591 129.079 22.9061 129.504 22.6001C129.936 22.294 130.152 21.8389 130.152 21.2347C130.152 20.8973 130.058 20.5992 129.869 20.3402C129.68 20.0734 129.401 19.8184 129.032 19.5752C128.67 19.3319 127.928 18.9435 126.804 18.4099C125.751 17.9156 124.961 17.4409 124.434 16.9858C123.908 16.5306 123.487 16.001 123.173 15.3968C122.859 14.7926 122.701 14.0864 122.701 13.2782C122.701 11.7559 123.216 10.5593 124.246 9.68831C125.283 8.81733 126.714 8.38184 128.537 8.38184C129.433 8.38184 130.286 8.48777 131.095 8.69963C131.912 8.91149 132.765 9.20966 133.653 9.59415L132.474 12.4307C131.555 12.0541 130.793 11.7912 130.187 11.6421C129.59 11.4931 129.001 11.4185 128.419 11.4185C127.727 11.4185 127.197 11.5794 126.827 11.9011C126.458 12.2228 126.273 12.6426 126.273 13.1605C126.273 13.4822 126.348 13.7647 126.497 14.0079C126.647 14.2433 126.883 14.4748 127.205 14.7024C127.535 14.9221 128.309 15.3222 129.527 15.9029C131.138 16.6719 132.243 17.4448 132.84 18.2216C133.437 18.9906 133.736 19.9361 133.736 21.0582Z" fill="black"/>
<path d="M143.509 25.8368H139.854V11.6657H135.174V8.62901H148.189V11.6657H143.509V25.8368Z" fill="black"/>
<path d="M161.393 25.8368L160.143 21.7409H153.86L152.61 25.8368H148.672L154.756 8.55839H159.224L165.33 25.8368H161.393ZM159.271 18.6806C158.115 14.9691 157.463 12.8702 157.314 12.3837C157.172 11.8972 157.07 11.5127 157.007 11.2302C156.748 12.2346 156.005 14.7181 154.779 18.6806H159.271Z" fill="black"/>
<path d="M53.5478 35.4813H55.5433V38.1138C55.2199 38.2203 54.9148 38.2943 54.6281 38.336C54.3437 38.38 54.0524 38.402 53.7542 38.402C52.995 38.402 52.4146 38.1774 52.0132 37.7283C51.6141 37.2768 51.4146 36.6297 51.4146 35.7869C51.4146 34.9673 51.6462 34.3283 52.1096 33.8699C52.5752 33.4114 53.2197 33.1822 54.0432 33.1822C54.5593 33.1822 55.0571 33.2864 55.5365 33.4948L55.1821 34.3561C54.8151 34.1709 54.4332 34.0782 54.0363 34.0782C53.5753 34.0782 53.206 34.2345 52.9284 34.5471C52.6509 34.8596 52.5121 35.2799 52.5121 35.8077C52.5121 36.3588 52.6234 36.7802 52.8459 37.0719C53.0707 37.3613 53.3964 37.506 53.823 37.506C54.0455 37.506 54.2714 37.4828 54.5008 37.4365V36.3773H53.5478V35.4813Z" fill="#B4B4B4"/>
<path d="M80.3594 35.5091H80.7035C81.0407 35.5091 81.2895 35.4524 81.4501 35.3389C81.6107 35.2255 81.691 35.0472 81.691 34.8041C81.691 34.5633 81.6084 34.392 81.4432 34.2901C81.2804 34.1882 81.0269 34.1373 80.6828 34.1373H80.3594V35.5091ZM80.3594 36.3842V38.3325H79.2928V33.2552H80.7585C81.4421 33.2552 81.9479 33.3814 82.2759 33.6337C82.6039 33.8838 82.7679 34.2646 82.7679 34.7763C82.7679 35.075 82.6865 35.3412 82.5236 35.5751C82.3607 35.8066 82.1302 35.9883 81.832 36.1203C82.589 37.2617 83.0821 37.9991 83.3115 38.3325H82.1279L80.9271 36.3842H80.3594Z" fill="#B4B4B4"/>
<path d="M111.059 35.7869C111.059 36.6274 110.853 37.2733 110.44 37.7248C110.027 38.1763 109.435 38.402 108.664 38.402C107.894 38.402 107.302 38.1763 106.889 37.7248C106.476 37.2733 106.27 36.625 106.27 35.78C106.27 34.9349 106.476 34.2901 106.889 33.8456C107.304 33.3987 107.898 33.1753 108.671 33.1753C109.444 33.1753 110.035 33.3999 110.443 33.849C110.854 34.2982 111.059 34.9442 111.059 35.7869ZM107.388 35.7869C107.388 36.3542 107.495 36.7813 107.708 37.0684C107.921 37.3555 108.24 37.499 108.664 37.499C109.515 37.499 109.941 36.9283 109.941 35.7869C109.941 34.6432 109.518 34.0713 108.671 34.0713C108.247 34.0713 107.927 34.216 107.711 34.5054C107.496 34.7925 107.388 35.2197 107.388 35.7869Z" fill="#B4B4B4"/>
<path d="M138.745 33.2552V36.5405C138.745 36.9156 138.661 37.2444 138.493 37.5268C138.328 37.8093 138.089 38.0258 137.774 38.1763C137.46 38.3268 137.089 38.402 136.66 38.402C136.013 38.402 135.51 38.2353 135.153 37.9019C134.795 37.5662 134.616 37.1078 134.616 36.5266V33.2552H135.679V36.3634C135.679 36.7547 135.757 37.0418 135.913 37.2247C136.069 37.4076 136.327 37.499 136.687 37.499C137.036 37.499 137.288 37.4076 137.444 37.2247C137.602 37.0395 137.681 36.7501 137.681 36.3565V33.2552H138.745Z" fill="#B4B4B4"/>
<path d="M163.592 35.6445H163.943C164.271 35.6445 164.516 35.5797 164.679 35.45C164.842 35.3181 164.923 35.1271 164.923 34.877C164.923 34.6246 164.854 34.4383 164.717 34.3179C164.581 34.1975 164.368 34.1373 164.077 34.1373H163.592V35.6445ZM166 34.8388C166 35.3852 165.83 35.8031 165.491 36.0925C165.154 36.3819 164.673 36.5266 164.049 36.5266H163.592V38.3325H162.525V33.2552H164.132C164.742 33.2552 165.205 33.3883 165.522 33.6546C165.841 33.9185 166 34.3132 166 34.8388Z" fill="#B4B4B4"/>
</svg>
